<svg xmlns="http://www.w3.org/2000/svg" xmlns:xlink="http://www.w3.org/1999/xlink" width="297.573" height="297.573" viewBox="0 0 223.18 223.18" class="displayed_equation">
  <defs>
    <clipPath id="svg806147842435tikz_00001g">
      <path d="M 15.734375 15.738281 L 207.441406 15.738281 L 207.441406 207.445313 L 15.734375 207.445313 Z M 15.734375 15.738281" />
    </clipPath>
    <clipPath id="svg806147842435tikz_00001h">
      <path d="M 103.601563 39.703125 L 181.480469 39.703125 L 181.480469 182.480469 L 103.601563 182.480469 Z M 103.601563 39.703125" />
    </clipPath>
    <filter id="svg806147842435tikz_00001c" filterUnits="objectBoundingBox" x="0%" y="0%" width="100%" height="100%">
      <feColorMatrix in="SourceGraphic" values="0 0 0 0 1 0 0 0 0 1 0 0 0 0 1 0 0 0 1 0" />
    </filter>
    <clipPath id="svg806147842435tikz_00001b">
      <path d="M 0.601563 0.703125 L 78.480469 0.703125 L 78.480469 143.480469 L 0.601563 143.480469 Z M 0.601563 0.703125" />
    </clipPath>
    <clipPath id="svg806147842435tikz_00001a">
      <path d="M0 0H79V144H0z" />
    </clipPath>
    <g clip-path="url(#svg806147842435tikz_00001a)">
      <g clip-path="url(#svg806147842435tikz_00001b)" id="svg806147842435tikz_00001d">
        <path d="M 0.601563 143.480469 L 78.480469 143.480469 L 78.480469 0.703125 L 0.601563 0.703125 Z M 0.601563 143.480469" fill-opacity=".702" />
      </g>
    </g>
    <mask id="svg806147842435tikz_00001j">
      <g filter="url(#svg806147842435tikz_00001c)">
        <use xlink:href="#svg806147842435tikz_00001d" />
      </g>
    </mask>
    <clipPath id="svg806147842435tikz_00001f">
      <path d="M 1 1 L 78 1 L 78 143.480469 L 1 143.480469 Z M 1 1" />
    </clipPath>
    <clipPath id="svg806147842435tikz_00001e">
      <path d="M0 0H79V144H0z" />
    </clipPath>
    <g clip-path="url(#svg806147842435tikz_00001e)">
      <g clip-path="url(#svg806147842435tikz_00001f)" id="svg806147842435tikz_00001i">
        <path d="M 6.921875 1.492188 C 46.0625 1.492188 77.796875 33.21875 77.796875 72.363281 C 77.796875 111.5 46.0625 143.234375 6.921875 143.234375 C 3.34375 143.234375 1.277344 111.5 1.277344 72.363281 C 1.277344 33.21875 1.746094 1.492188 6.921875 1.492188 Z M 6.921875 1.492188" />
      </g>
    </g>
    <clipPath id="svg806147842435tikz_00001k">
      <path d="M 15.734375 15.738281 L 207.441406 15.738281 L 207.441406 207.445313 L 15.734375 207.445313 Z M 15.734375 15.738281" />
    </clipPath>
  </defs>
  <g clip-path="url(#svg806147842435tikz_00001g)">
    <path d="M 15.734375 207.445313 L 207.441406 207.445313 L 207.441406 15.738281 L 15.734375 15.738281 Z M 15.734375 207.445313" fill="#1c1c1c" />
  </g>
  <path d="M 109.917969 40.488281 C 111.816406 40.488281 113.695313 40.558594 115.550781 40.71875 C 117.996094 40.894531 120.414063 41.214844 122.777344 41.65625 C 125.414063 42.136719 127.992188 42.765625 130.507813 43.523438 C 138.355469 45.898438 145.625 49.605469 152.054688 54.367188 C 169.488281 67.277344 180.789063 88.003906 180.789063 111.359375 C 180.789063 146.164063 155.707031 175.109375 122.609375 181.089844 C 118.496094 181.839844 114.253906 182.230469 109.917969 182.230469 C 81.78125 182.230469 57.480469 165.835938 46.035156 142.078125 C 41.554688 132.785156 39.046875 122.359375 39.046875 111.359375 C 39.046875 98.730469 42.351563 86.867188 48.15625 76.589844 C 49.820313 73.617188 51.71875 70.773438 53.792969 68.085938 C 63.003906 56.152344 75.941406 47.238281 90.859375 43.085938 C 96.308594 41.554688 102.039063 40.679688 107.941406 40.515625 C 108.601563 40.496094 109.261719 40.488281 109.917969 40.488281 Z M 109.917969 40.488281" fill="#fff" />
  <path d="M90.179688 60.289063C90.226563 62.449219 91.253906 64.679688 93.140625 65.738281 94.644531 66.578125 96.464844 66.585938 98.1875 66.574219 99.875 66.5625 101.589844 66.546875 103.207031 66.070313 104.824219 65.597656 106.367188 64.59375 107.09375 63.074219 108.019531 61.140625 107.441406 58.742188 106.121094 57.058594 104.808594 55.367188 102.871094 54.289063 100.902344 53.449219 99.335938 52.777344 97.679688 52.222656 95.980469 52.257813 91.804688 52.351563 90.105469 56.582031 90.179688 60.289063zM90.859375 43.085938C91.347656 45.421875 93.226563 47.398438 95.53125 48.027344 97.878906 48.664063 100.5625 47.847656 102.160156 46.007813 102.578125 45.523438 102.9375 44.972656 103.429688 44.550781 104.296875 43.820313 105.476563 43.601563 106.476563 43.074219 107.410156 42.566406 108.25 41.496094 107.941406 40.515625zM90.859375 43.085938" fill="#d6d6d6" />
  <path d="M 115.550781 40.71875 C 117.996094 40.894531 120.414063 41.214844 122.777344 41.65625 C 122.507813 43.511719 120.363281 44.050781 120.140625 45.433594 C 119.953125 46.519531 121.203125 47.296875 122.300781 47.46875 C 123.386719 47.636719 124.628906 47.578125 125.433594 48.324219 C 127.101563 49.855469 125.265625 52.582031 125.484375 54.835938 C 125.792969 58.101563 130.046875 59.128906 133.332031 59.046875 C 136.617188 58.96875 140.75 59.136719 142.019531 62.164063 C 142.617188 63.59375 141.589844 65.785156 140.121094 65.3125 C 139.484375 65.109375 139.066406 64.460938 138.425781 64.261719 C 136.945313 63.78125 135.9375 65.9375 136.320313 67.4375 C 136.695313 68.941406 137.714844 70.382813 137.425781 71.910156 C 137.074219 73.683594 135.058594 74.65625 133.253906 74.734375 C 131.445313 74.816406 129.636719 74.296875 127.832031 74.394531 C 124.964844 74.554688 122.179688 76.53125 121.402344 79.296875 C 120.632813 82.0625 122.210938 85.390625 124.953125 86.234375 C 127.320313 86.976563 129.828125 85.929688 132.273438 85.460938 C 134.710938 84.988281 137.863281 85.539063 138.613281 87.914063 C 138.035156 91.019531 134.652344 93.316406 131.546875 92.707031 C 129.828125 92.378906 127.710938 91.421875 126.59375 92.757813 C 127.261719 93.773438 127.960938 94.84375 128.082031 96.0625 C 128.199219 97.269531 127.550781 98.660156 126.375 98.925781 C 124.652344 99.324219 122.027344 97.761719 121.582031 99.460938 C 121.433594 100.054688 121.8125 100.65625 121.929688 101.265625 C 122.300781 103.132813 120.03125 104.617188 118.15625 104.347656 C 116.269531 104.078125 114.75 102.742188 113.214844 101.621094 C 111.679688 100.507813 109.746094 99.527344 107.933594 100.097656 C 106.117188 100.675781 105.277344 103.59375 106.960938 104.46875 C 107.621094 104.808594 108.421875 104.738281 109.089844 105.066406 C 111.386719 106.21875 110.757813 111.21875 113.304688 110.871094 C 114.183594 110.75 114.75 109.902344 115.511719 109.449219 C 117.171875 108.472656 119.546875 109.761719 119.933594 111.640625 C 120.320313 113.527344 119.007813 115.492188 117.226563 116.210938 C 115.449219 116.917969 112.964844 116.910156 112.304688 118.707031 C 112.085938 119.324219 112.164063 120.015625 112.265625 120.664063 C 112.515625 122.339844 112.832031 124.097656 113.914063 125.40625 C 114.988281 126.707031 117.066406 127.351563 118.417969 126.335938 C 119.441406 125.566406 119.722656 124.175781 120.152344 122.972656 C 120.761719 121.234375 121.828125 119.664063 123.207031 118.449219 C 124.839844 117.007813 127.96875 116.449219 128.71875 118.5 C 128.949219 119.113281 128.859375 119.804688 128.691406 120.433594 C 128.101563 122.679688 126.664063 124.585938 125.484375 126.578125 C 124.296875 128.574219 123.339844 130.898438 123.828125 133.164063 C 124.3125 135.429688 126.855469 137.328125 128.980469 136.390625 C 129.867188 136 130.507813 135.210938 131.175781 134.492188 C 133.484375 131.984375 136.4375 130.078125 139.675781 128.992188 C 140.371094 128.761719 141.160156 128.5625 141.851563 128.851563 C 142.925781 129.308594 143.265625 130.71875 144.207031 131.410156 C 145.664063 132.476563 147.730469 131.378906 148.960938 130.058594 C 150.183594 128.742188 151.324219 127.0625 153.101563 126.761719 C 155.546875 126.335938 157.664063 129.640625 156.265625 131.6875 C 157.378906 132.046875 158.484375 132.394531 159.59375 132.753906 C 160.839844 133.925781 160.5 136.082031 159.453125 137.4375 C 158.402344 138.796875 156.847656 139.644531 155.546875 140.761719 C 154.25 141.882813 153.132813 143.519531 153.472656 145.195313 C 153.8125 146.886719 156.316406 147.890625 157.3125 146.496094 C 157.117188 145.355469 156.9375 144.140625 157.394531 143.078125 C 157.855469 142.011719 159.234375 141.273438 160.210938 141.898438 C 160.609375 142.160156 160.871094 142.589844 161.058594 143.019531 C 162.925781 147.175781 159.5625 152.695313 155.019531 152.925781 C 157.058594 154.234375 157.625 157.355469 156.167969 159.296875 C 154.613281 161.351563 151.65625 161.652344 149.46875 163.027344 C 147.0625 164.546875 145.714844 167.304688 143.515625 169.121094 C 140.53125 171.585938 136.410156 172.015625 132.851563 173.5625 C 129 175.25 125.824219 178.246094 122.609375 181.089844 C 118.496094 181.839844 114.253906 182.230469 109.917969 182.230469 C 81.78125 182.230469 57.480469 165.835938 46.035156 142.078125 C 47.625 141.214844 49.902344 141.433594 50.601563 143.078125 C 50.882813 143.75 50.863281 144.527344 51.269531 145.125 C 52.167969 146.464844 54.484375 145.753906 55.171875 144.289063 C 55.863281 142.828125 55.492188 141.125 55.214844 139.527344 C 54.183594 133.625 54.644531 127.582031 55.105469 121.609375 C 55.253906 119.703125 55.414063 117.769531 56.152344 116.011719 C 57.050781 113.863281 58.761719 112.15625 59.835938 110.089844 C 60.925781 108.035156 61.226563 105.199219 59.515625 103.613281 C 58.796875 102.953125 57.839844 102.621094 57.078125 102.011719 C 54.785156 100.214844 55.253906 95.992188 57.878906 94.734375 C 58.558594 94.414063 59.40625 94.164063 59.617188 93.449219 C 59.765625 92.929688 59.484375 92.386719 59.40625 91.835938 C 59.015625 89.351563 62.84375 88.285156 65 89.582031 C 67.164063 90.890625 68.453125 93.328125 70.609375 94.632813 C 72.765625 95.945313 76.589844 94.894531 76.21875 92.398438 C 75.03125 91.808594 73.625 90.601563 74.292969 89.453125 C 75.300781 87.726563 79.035156 89.800781 79.625 87.886719 C 77.949219 86.515625 79.316406 83.472656 81.421875 83.003906 C 83.53125 82.523438 85.636719 83.753906 87.292969 85.140625 C 86.226563 85.824219 85.117188 86.566406 84.535156 87.707031 C 83.96875 88.84375 84.191406 90.480469 85.335938 91.042969 C 87.574219 92.128906 89.050781 88.476563 91.226563 87.246094 C 93.164063 86.140625 95.5625 87.144531 97.789063 87.265625 C 100.011719 87.386719 102.757813 85.210938 101.472656 83.394531 C 100.613281 82.195313 98.695313 82.375 97.605469 81.382813 C 96.242188 80.128906 97.039063 77.652344 98.628906 76.671875 C 100.203125 75.683594 102.179688 75.714844 104.050781 75.625 C 105.90625 75.523438 107.941406 75.183594 109.132813 73.746094 C 109.957031 72.730469 110.199219 71.359375 110.648438 70.132813 C 111.546875 67.695313 113.324219 65.722656 114.828125 63.609375 C 116.328125 61.503906 117.625 59.007813 117.304688 56.441406 C 116.984375 53.875 114.410156 51.492188 111.9375 52.25 C 111.027344 52.53125 110.226563 53.191406 109.273438 53.230469 C 107.941406 53.285156 106.804688 51.941406 106.867188 50.613281 C 106.921875 49.273438 107.980469 48.117188 109.238281 47.6875 C 112.5625 46.558594 113.925781 46.257813 115.160156 42.714844 C 115.378906 42.105469 115.460938 41.40625 115.550781 40.71875 Z M 115.550781 40.71875" fill="#d6d6d6" />
  <path d="M130.507813 43.523438C128.859375 44.292969 127.980469 45.53125 129.308594 47.40625 129.855469 48.183594 130.855469 48.453125 131.6875 48.902344 132.523438 49.363281 133.292969 50.335938 132.882813 51.191406 132.574219 51.851563 131.648438 52.191406 131.597656 52.921875 131.566406 53.460938 132.046875 53.875 132.523438 54.125 134.628906 55.246094 137.269531 54.777344 139.476563 55.664063 140.980469 56.261719 142.171875 57.441406 143.566406 58.253906 144.96875 59.058594 146.851563 59.4375 148.121094 58.441406 148.96875 57.773438 149.339844 56.640625 150.195313 55.984375 150.605469 55.664063 151.117188 55.476563 151.503906 55.125 151.746094 54.917969 151.925781 54.65625 152.054688 54.367188zM140.96875 83.4375C141.394531 84.453125 140.945313 85.59375 140.742188 86.675781 140.402344 88.476563 140.835938 90.496094 142.191406 91.722656 143.554688 92.941406 145.898438 93.066406 147.140625 91.726563 148.441406 90.328125 150.117188 84.914063 150.351563 83.046875 150.660156 80.59375 149.984375 79.101563 147.714844 77.960938 145.65625 76.921875 142.0625 76.996094 140.074219 78.164063 135.8125 80.65625 139.828125 80.699219 140.96875 83.4375zM140.96875 83.4375" fill="#d6d6d6" />
  <path d="M111.25 153.484375C112.550781 152.425781 113.613281 150.984375 115.1875 150.402344 115.972656 150.113281 116.820313 150.066406 117.648438 149.949219 120.792969 149.503906 123.769531 147.949219 125.9375 145.632813 126.375 145.164063 126.796875 144.628906 126.878906 144 127.058594 142.558594 125.324219 141.5 123.898438 141.75 122.472656 141.992188 121.355469 143.058594 120.277344 144.027344 119.203125 144.996094 117.949219 145.96875 116.503906 145.949219 115.90625 145.945313 115.289063 145.75 114.867188 145.324219 113.882813 144.339844 114.28125 142.707031 114.246094 141.3125 114.171875 138.339844 111.675781 135.824219 108.828125 134.972656 105.980469 134.128906 102.890625 134.652344 100.078125 135.609375 99.6875 135.742188 99.273438 135.902344 99.039063 136.238281 98.503906 136.988281 99.242188 138.082031 100.132813 138.335938 101.023438 138.59375 101.96875 138.347656 102.894531 138.347656 104.703125 138.339844 106.550781 139.417969 107.171875 141.121094 107.796875 142.820313 106.914063 145.003906 105.195313 145.5625 104.1875 145.894531 103.097656 145.671875 102.050781 145.503906 101.007813 145.335938 99.867188 145.242188 98.953125 145.769531 98.035156 146.296875 97.570313 147.691406 98.320313 148.441406 100.832031 150.945313 95.542969 152.453125 99.800781 154.707031 102.984375 156.386719 108.5625 155.660156 111.25 153.484375zM88.765625 121.558594C89.492188 121.460938 90.265625 121.265625 90.742188 120.707031 91.183594 120.1875 91.285156 119.460938 91.664063 118.894531 92.660156 117.433594 95.292969 118 95.898438 119.660156 96.5 121.324219 95.28125 123.269531 93.605469 123.832031 92.574219 124.175781 91.300781 124.175781 90.671875 125.0625 89.835938 126.238281 91.085938 127.984375 92.515625 128.113281 93.953125 128.246094 95.261719 127.324219 96.316406 126.34375 96.855469 125.832031 97.417969 125.269531 98.152344 125.136719 99.339844 124.925781 100.386719 125.9375 101.058594 126.941406 101.722656 127.949219 102.34375 129.125 103.476563 129.554688 105.011719 130.144531 106.796875 128.925781 107.285156 127.355469 107.777344 125.785156 107.273438 124.070313 106.507813 122.617188 104.746094 119.308594 101.671875 116.890625 98.445313 114.984375 97.398438 114.371094 96.300781 113.785156 95.097656 113.648438 93.898438 113.503906 92.5625 113.890625 91.871094 114.882813 91.386719 115.585938 91.265625 116.503906 90.734375 117.171875 88.8125 119.597656 84.5 116.21875 83.285156 118.511719 81.613281 121.65625 87.375 121.746094 88.765625 121.558594zM88.765625 121.558594" fill="#fff" />
  <path d="M64.246094 105.078125C64.789063 106.703125 66.585938 107.640625 67.199219 109.242188 67.960938 111.226563 66.617188 113.40625 65.035156 114.828125 63.457031 116.253906 61.519531 117.394531 60.515625 119.269531 58.601563 122.847656 60.886719 127.214844 60.546875 131.261719 60.382813 133.1875 59.617188 135.023438 59.4375 136.949219 59.140625 140.09375 60.425781 143.152344 61.683594 146.050781 62.402344 147.714844 63.28125 149.539063 64.96875 150.199219 65.851563 150.542969 66.835938 150.511719 67.785156 150.472656 71.457031 150.328125 75.128906 150.183594 78.796875 150.035156 78.332031 148.191406 76.191406 147.328125 74.292969 147.164063 72.398438 147.003906 70.394531 147.226563 68.683594 146.390625 65.882813 145.015625 65.058594 141.367188 65.328125 138.253906 65.601563 135.144531 66.621094 132.046875 66.15625 128.960938 65.800781 126.566406 64.566406 124.371094 64.132813 121.988281 63.703125 119.605469 64.429688 116.664063 66.699219 115.816406 69.949219 114.59375 73.820313 118.445313 76.765625 116.613281 77.738281 116.011719 78.296875 114.921875 79.160156 114.179688 80.773438 112.796875 83.125 112.816406 85.117188 112.078125 87.105469 111.34375 88.855469 108.78125 87.421875 107.214844 85.878906 105.539063 82.785156 107.234375 80.902344 105.953125 79.867188 105.25 79.574219 103.664063 80.289063 102.636719 80.691406 102.0625 81.339844 101.671875 81.632813 101.039063 82.28125 99.640625 80.734375 98.082031 79.203125 97.929688 77.664063 97.773438 76.179688 98.449219 74.660156 98.695313 72.316406 99.078125 68.515625 96.230469 66.988281 96.910156 65.320313 97.660156 63.730469 103.539063 64.246094 105.078125zM116.113281 157.972656C116.953125 157.425781 117.734375 156.753906 118.691406 156.441406 119.640625 156.128906 120.859375 156.304688 121.386719 157.160156 123.824219 161.121094 108.652344 169.398438 105.136719 168.703125 101.183594 167.917969 100.707031 164.171875 103.808594 162.199219 107.457031 159.882813 112.394531 160.40625 116.113281 157.972656zM116.113281 157.972656" fill="#fff" />
  <path d="M146.921875 64.175781C147.285156 63.792969 147.578125 63.230469 148.109375 63.179688 148.425781 63.144531 148.722656 63.3125 148.996094 63.476563 152.882813 65.824219 147.890625 69.375 145.015625 69.109375 143.851563 69.003906 142.96875 68.410156 143.132813 67.132813 143.394531 65.140625 145.78125 65.363281 146.921875 64.175781zM69.667969 73.074219C70.195313 72.78125 70.792969 72.625 71.289063 72.277344 71.777344 71.933594 72.152344 71.289063 71.921875 70.734375 71.246094 69.097656 68.292969 70.6875 67.484375 71.378906 66.507813 72.210938 65.800781 73.535156 65.554688 74.792969 65.402344 75.570313 65.238281 76.75 66.234375 76.949219 67.820313 77.261719 68.410156 73.78125 69.667969 73.074219zM53.792969 68.085938C55.3125 67.847656 56.691406 67.007813 58.140625 66.460938 58.609375 66.277344 59.125 66.128906 59.605469 66.285156 60.496094 66.585938 60.726563 67.816406 60.335938 68.664063 59.9375 69.511719 59.136719 70.082031 58.429688 70.683594 57.410156 71.550781 56.519531 72.558594 55.78125 73.664063 54.375 75.804688 52.847656 77.269531 50.082031 77.152344 49.320313 77.109375 48.660156 76.941406 48.15625 76.589844zM53.792969 68.085938" fill="#d6d6d6" />
  <path d="M133.605469 155.574219C134.101563 155.292969 134.570313 154.894531 134.746094 154.355469 134.933594 153.78125 134.753906 153.121094 134.371094 152.652344 133.992188 152.179688 133.429688 151.882813 132.847656 151.722656 132.039063 151.5 131.167969 151.519531 130.375 151.785156 128.984375 152.242188 127.777344 153.839844 128.769531 155.230469 129.796875 156.671875 132.300781 156.316406 133.605469 155.574219zM92.871094 168.265625C92.976563 167.546875 92.628906 166.847656 92.242188 166.234375 91.242188 164.652344 89.71875 163.167969 87.753906 163.023438 86.226563 162.914063 84.289063 163.746094 84.503906 165.53125 84.824219 168.214844 92.453125 171.167969 92.871094 168.265625zM140.652344 138.535156C141.433594 138.1875 142.308594 138.117188 143.136719 137.90625 143.300781 137.863281 143.484375 137.800781 143.554688 137.644531 143.65625 137.402344 143.410156 137.160156 143.179688 137.03125 141.972656 136.363281 140.464844 136.414063 139.152344 136.855469 137.757813 137.320313 132.667969 139.871094 134.246094 142.160156 136.003906 144.710938 139.265625 139.152344 140.652344 138.535156zM143.632813 152.308594C144.378906 152.84375 145.21875 153.347656 146.136719 153.316406 147.140625 153.285156 148.015625 152.617188 148.679688 151.863281 149.339844 151.105469 149.867188 150.230469 150.613281 149.558594 150.730469 149.457031 150.863281 149.324219 150.832031 149.171875 150.8125 149.078125 150.730469 149.003906 150.652344 148.945313 150.007813 148.457031 149.222656 148.164063 148.414063 148.125 148.105469 148.109375 147.773438 148.136719 147.539063 148.335938 147.324219 148.523438 147.238281 148.8125 147.132813 149.074219 146.894531 149.644531 146.46875 150.160156 145.890625 150.394531 145.316406 150.625 144.59375 150.519531 144.183594 150.054688 143.925781 149.761719 143.8125 149.363281 143.570313 149.058594 142.957031 148.28125 141.574219 148.34375 141.375 149.324219 141.148438 150.425781 142.894531 151.789063 143.632813 152.308594zM143.632813 152.308594" fill="#fff" />
  <g clip-path="url(#svg806147842435tikz_00001h)">
    <use xlink:href="#svg806147842435tikz_00001i" transform="translate(103 39)" mask="url(#svg806147842435tikz_00001j)" />
  </g>
  <g clip-path="url(#svg806147842435tikz_00001k)">
    <path d="M 1807.96875 1118.167188 C 1807.96875 726.8 1490.625 409.45625 1099.21875 409.45625 C 707.8125 409.45625 390.507813 726.8 390.507813 1118.167188 C 390.507813 1509.6125 707.8125 1826.878125 1099.21875 1826.878125 C 1490.625 1826.878125 1807.96875 1509.6125 1807.96875 1118.167188 Z M 1807.96875 1118.167188" transform="matrix(.1 0 0 -.1 0 223.18)" fill="none" stroke-width="24.962" stroke="#1c1c1c" stroke-miterlimit="10" />
  </g>
</svg>