<svg xmlns="http://www.w3.org/2000/svg" width="233.667" height="233.667" viewBox="0 0 175.25 175.25" class="displayed_equation">
  <defs>
    <clipPath id="svg567105410589tikz_00002a">
      <path d="M 15.734375 15.738281 L 159.511719 15.738281 L 159.511719 159.515625 L 15.734375 159.515625 Z M 15.734375 15.738281" />
    </clipPath>
    <clipPath id="svg567105410589tikz_00002b">
      <path d="M 15.734375 15.738281 L 159.511719 15.738281 L 159.511719 159.515625 L 15.734375 159.515625 Z M 15.734375 15.738281" />
    </clipPath>
  </defs>
  <g clip-path="url(#svg567105410589tikz_00002a)">
    <path d="M 15.734375 159.515625 L 159.511719 159.515625 L 159.511719 15.738281 L 15.734375 15.738281 Z M 15.734375 159.515625" fill="#1c1c1c" />
  </g>
  <path d="M 140.902344 87.746094 C 140.902344 89.167969 140.847656 90.578125 140.726563 91.96875 C 140.59375 93.804688 140.355469 95.617188 140.027344 97.394531 C 139.664063 99.371094 139.195313 101.300781 138.625 103.1875 C 136.84375 109.074219 134.066406 114.523438 130.492188 119.347656 C 120.808594 132.421875 105.265625 140.898438 87.746094 140.898438 C 61.644531 140.898438 39.933594 122.089844 35.449219 97.265625 C 34.886719 94.179688 34.59375 90.996094 34.59375 87.746094 C 34.59375 66.644531 46.890625 48.417969 64.707031 39.835938 C 71.679688 36.472656 79.496094 34.597656 87.746094 34.597656 C 97.222656 34.597656 106.117188 37.074219 113.820313 41.421875 C 116.054688 42.675781 118.1875 44.097656 120.203125 45.65625 C 129.152344 52.558594 135.839844 62.265625 138.953125 73.449219 C 140.097656 77.539063 140.761719 81.839844 140.878906 86.265625 C 140.894531 86.761719 140.902344 87.253906 140.902344 87.746094 Z M 140.902344 87.746094" fill="#fff" />
  <path d="M126.050781 72.945313C124.429688 72.980469 122.757813 73.746094 121.964844 75.164063 121.335938 76.292969 121.324219 77.652344 121.335938 78.949219 121.34375 80.214844 121.355469 81.496094 121.710938 82.710938 122.066406 83.925781 122.824219 85.082031 123.964844 85.628906 125.410156 86.324219 127.210938 85.890625 128.476563 84.902344 129.738281 83.914063 130.550781 82.460938 131.183594 80.984375 131.6875 79.8125 132.101563 78.570313 132.070313 77.289063 132.003906 74.164063 128.828125 72.886719 126.050781 72.945313zM138.953125 73.449219C137.203125 73.816406 135.71875 75.226563 135.246094 76.957031 134.769531 78.714844 135.378906 80.730469 136.757813 81.925781 137.128906 82.242188 137.539063 82.511719 137.851563 82.882813 138.398438 83.53125 138.5625 84.414063 138.960938 85.164063 139.34375 85.867188 140.144531 86.496094 140.878906 86.265625zM138.953125 73.449219" fill="#d6d6d6" />
  <path d="M 140.726563 91.96875 C 140.59375 93.804688 140.355469 95.617188 140.027344 97.394531 C 138.632813 97.191406 138.226563 95.578125 137.195313 95.414063 C 136.378906 95.273438 135.792969 96.207031 135.667969 97.03125 C 135.539063 97.847656 135.585938 98.777344 135.023438 99.382813 C 133.878906 100.632813 131.832031 99.253906 130.140625 99.421875 C 127.691406 99.652344 126.921875 102.84375 126.980469 105.308594 C 127.039063 107.769531 126.914063 110.871094 124.644531 111.820313 C 123.570313 112.273438 121.925781 111.5 122.285156 110.402344 C 122.433594 109.921875 122.921875 109.605469 123.070313 109.125 C 123.429688 108.015625 121.8125 107.261719 120.691406 107.546875 C 119.558594 107.828125 118.480469 108.59375 117.335938 108.375 C 116.003906 108.117188 115.277344 106.605469 115.214844 105.246094 C 115.15625 103.894531 115.546875 102.539063 115.46875 101.179688 C 115.347656 99.03125 113.867188 96.941406 111.792969 96.359375 C 109.71875 95.78125 107.226563 96.964844 106.589844 99.023438 C 106.035156 100.800781 106.824219 102.679688 107.171875 104.511719 C 107.523438 106.339844 107.113281 108.707031 105.332031 109.269531 C 103.003906 108.832031 101.277344 106.296875 101.734375 103.964844 C 101.984375 102.679688 102.703125 101.089844 101.699219 100.253906 C 100.933594 100.753906 100.136719 101.277344 99.21875 101.367188 C 98.3125 101.457031 97.273438 100.96875 97.070313 100.085938 C 96.773438 98.800781 97.949219 96.832031 96.675781 96.496094 C 96.222656 96.378906 95.777344 96.664063 95.316406 96.753906 C 93.917969 97.03125 92.800781 95.332031 93.003906 93.925781 C 93.207031 92.511719 94.210938 91.371094 95.046875 90.21875 C 95.886719 89.066406 96.621094 87.621094 96.195313 86.257813 C 95.757813 84.894531 93.574219 84.265625 92.914063 85.53125 C 92.660156 86.023438 92.714844 86.625 92.464844 87.125 C 91.605469 88.847656 87.851563 88.378906 88.117188 90.285156 C 88.203125 90.945313 88.839844 91.371094 89.175781 91.941406 C 89.914063 93.183594 88.949219 94.964844 87.539063 95.257813 C 86.125 95.550781 84.648438 94.5625 84.109375 93.226563 C 83.578125 91.894531 83.585938 90.03125 82.238281 89.535156 C 81.773438 89.371094 81.257813 89.433594 80.769531 89.507813 C 79.511719 89.695313 78.195313 89.933594 77.210938 90.742188 C 76.238281 91.550781 75.753906 93.109375 76.515625 94.117188 C 77.089844 94.890625 78.132813 95.097656 79.039063 95.421875 C 80.339844 95.878906 81.515625 96.679688 82.433594 97.714844 C 83.507813 98.933594 83.929688 101.285156 82.394531 101.847656 C 81.929688 102.019531 81.414063 101.953125 80.941406 101.824219 C 79.253906 101.382813 77.824219 100.304688 76.335938 99.421875 C 74.839844 98.53125 73.09375 97.8125 71.394531 98.179688 C 69.695313 98.542969 68.273438 100.445313 68.972656 102.042969 C 69.265625 102.707031 69.855469 103.1875 70.398438 103.691406 C 72.277344 105.417969 73.707031 107.636719 74.523438 110.0625 C 74.695313 110.589844 74.84375 111.179688 74.628906 111.695313 C 74.28125 112.503906 73.226563 112.757813 72.710938 113.464844 C 71.910156 114.554688 72.730469 116.105469 73.722656 117.027344 C 74.710938 117.949219 75.96875 118.800781 76.191406 120.136719 C 76.515625 121.96875 74.035156 123.554688 72.503906 122.507813 C 72.230469 123.339844 71.96875 124.167969 71.699219 125.003906 C 70.824219 125.9375 69.207031 125.679688 68.191406 124.898438 C 67.167969 124.109375 66.535156 122.945313 65.695313 121.96875 C 64.855469 120.996094 63.628906 120.15625 62.367188 120.410156 C 61.105469 120.664063 60.347656 122.546875 61.398438 123.292969 C 62.25 123.144531 63.164063 123.011719 63.957031 123.351563 C 64.757813 123.699219 65.316406 124.730469 64.839844 125.464844 C 64.648438 125.765625 64.328125 125.960938 64.003906 126.101563 C 60.890625 127.503906 56.746094 124.980469 56.574219 121.570313 C 55.59375 123.097656 53.25 123.527344 51.796875 122.429688 C 50.253906 121.265625 50.03125 119.046875 48.996094 117.410156 C 47.855469 115.605469 45.792969 114.59375 44.429688 112.945313 C 42.578125 110.703125 42.253906 107.613281 41.09375 104.949219 C 39.832031 102.058594 37.585938 99.675781 35.449219 97.265625 C 34.886719 94.179688 34.59375 90.996094 34.59375 87.746094 C 34.59375 66.644531 46.890625 48.417969 64.707031 39.835938 C 65.359375 41.027344 65.195313 42.734375 63.957031 43.261719 C 63.457031 43.46875 62.871094 43.453125 62.421875 43.761719 C 61.417969 44.433594 61.949219 46.171875 63.050781 46.6875 C 64.144531 47.203125 65.425781 46.925781 66.625 46.71875 C 71.046875 45.949219 75.578125 46.289063 80.058594 46.636719 C 81.488281 46.75 82.941406 46.867188 84.257813 47.421875 C 85.871094 48.09375 87.148438 49.375 88.699219 50.1875 C 90.242188 51.003906 92.367188 51.226563 93.558594 49.945313 C 94.054688 49.40625 94.300781 48.6875 94.757813 48.117188 C 96.105469 46.394531 99.273438 46.75 100.21875 48.71875 C 100.457031 49.226563 100.644531 49.859375 101.183594 50.019531 C 101.570313 50.132813 101.976563 49.921875 102.386719 49.859375 C 104.253906 49.570313 105.050781 52.4375 104.082031 54.054688 C 103.097656 55.683594 101.273438 56.648438 100.289063 58.265625 C 99.308594 59.882813 100.097656 62.75 101.96875 62.476563 C 102.410156 61.582031 103.316406 60.527344 104.179688 61.027344 C 105.472656 61.785156 103.914063 64.585938 105.355469 65.023438 C 106.382813 63.769531 108.664063 64.796875 109.015625 66.375 C 109.375 67.953125 108.453125 69.535156 107.414063 70.777344 C 106.894531 69.976563 106.34375 69.144531 105.488281 68.710938 C 104.632813 68.285156 103.40625 68.449219 102.988281 69.3125 C 102.171875 70.988281 104.914063 72.097656 105.835938 73.726563 C 106.664063 75.183594 105.90625 76.976563 105.820313 78.648438 C 105.730469 80.320313 107.359375 82.378906 108.722656 81.410156 C 109.621094 80.769531 109.488281 79.328125 110.226563 78.515625 C 111.171875 77.488281 113.03125 78.085938 113.765625 79.277344 C 114.503906 80.460938 114.480469 81.941406 114.550781 83.34375 C 114.625 84.734375 114.878906 86.265625 115.957031 87.15625 C 116.722656 87.777344 117.746094 87.957031 118.667969 88.292969 C 120.496094 88.96875 121.976563 90.296875 123.558594 91.429688 C 125.136719 92.554688 127.007813 93.527344 128.933594 93.289063 C 130.859375 93.046875 132.648438 91.113281 132.078125 89.261719 C 131.871094 88.578125 131.375 87.980469 131.347656 87.261719 C 131.300781 86.265625 132.3125 85.410156 133.308594 85.457031 C 134.308594 85.5 135.179688 86.292969 135.5 87.234375 C 136.347656 89.730469 136.570313 90.75 139.230469 91.675781 C 139.6875 91.84375 140.214844 91.902344 140.726563 91.96875 Z M 140.726563 91.96875" fill="#d6d6d6" />
  <path d="M138.625 103.1875C138.046875 101.953125 137.117188 101.292969 135.710938 102.289063 135.128906 102.703125 134.925781 103.449219 134.589844 104.070313 134.242188 104.699219 133.515625 105.277344 132.875 104.972656 132.378906 104.738281 132.125 104.042969 131.578125 104.003906 131.175781 103.984375 130.859375 104.339844 130.671875 104.699219 129.832031 106.28125 130.1875 108.257813 129.519531 109.914063 129.066406 111.042969 128.183594 111.933594 127.578125 112.984375 126.972656 114.03125 126.6875 115.445313 127.4375 116.398438 127.9375 117.035156 128.785156 117.308594 129.277344 117.957031 129.519531 118.261719 129.660156 118.644531 129.921875 118.9375 130.078125 119.113281 130.277344 119.25 130.492188 119.347656zM108.6875 111.035156C107.929688 111.351563 107.070313 111.019531 106.261719 110.863281 104.914063 110.609375 103.394531 110.933594 102.480469 111.953125 101.558594 112.976563 101.46875 114.734375 102.472656 115.664063 103.523438 116.640625 107.582031 117.898438 108.980469 118.074219 110.824219 118.304688 111.941406 117.796875 112.796875 116.09375 113.574219 114.550781 113.519531 111.855469 112.644531 110.363281 110.773438 107.164063 110.746094 110.179688 108.6875 111.035156zM108.6875 111.035156" fill="#d6d6d6" />
  <path d="M56.15625 88.742188C56.949219 89.71875 58.027344 90.519531 58.464844 91.695313 58.679688 92.285156 58.714844 92.921875 58.804688 93.542969 59.144531 95.902344 60.304688 98.132813 62.042969 99.761719 62.394531 100.089844 62.792969 100.40625 63.269531 100.464844 64.347656 100.601563 65.140625 99.300781 64.957031 98.230469 64.773438 97.160156 63.972656 96.320313 63.246094 95.519531 62.519531 94.710938 61.792969 93.769531 61.804688 92.6875 61.808594 92.234375 61.957031 91.777344 62.273438 91.457031 63.011719 90.71875 64.238281 91.023438 65.285156 90.992188 67.511719 90.9375 69.398438 89.0625 70.035156 86.925781 70.671875 84.789063 70.277344 82.476563 69.5625 80.363281 69.460938 80.074219 69.34375 79.765625 69.089844 79.585938 68.523438 79.183594 67.707031 79.742188 67.515625 80.40625 67.320313 81.074219 67.503906 81.785156 67.507813 82.476563 67.515625 83.835938 66.703125 85.21875 65.429688 85.6875 64.152344 86.152344 62.515625 85.496094 62.09375 84.203125 61.847656 83.449219 62.011719 82.628906 62.136719 81.84375 62.265625 81.0625 62.335938 80.210938 61.941406 79.519531 61.542969 78.835938 60.496094 78.484375 59.9375 79.046875 58.058594 80.933594 56.925781 76.964844 55.238281 80.160156 53.976563 82.546875 54.523438 86.730469 56.15625 88.742188zM80.097656 71.882813C80.171875 72.425781 80.320313 73.007813 80.738281 73.363281 81.125 73.695313 81.675781 73.773438 82.097656 74.058594 83.191406 74.800781 82.769531 76.78125 81.523438 77.230469 80.277344 77.683594 78.816406 76.769531 78.394531 75.511719 78.136719 74.738281 78.132813 73.78125 77.46875 73.308594 76.589844 72.683594 75.277344 73.621094 75.179688 74.695313 75.085938 75.773438 75.773438 76.753906 76.511719 77.542969 76.890625 77.949219 77.316406 78.375 77.414063 78.917969 77.574219 79.816406 76.816406 80.597656 76.0625 81.097656 75.304688 81.601563 74.421875 82.066406 74.097656 82.914063 73.65625 84.066406 74.574219 85.402344 75.753906 85.769531 76.925781 86.140625 78.21875 85.765625 79.304688 85.183594 81.789063 83.867188 83.597656 81.5625 85.027344 79.140625 85.488281 78.359375 85.925781 77.53125 86.03125 76.628906 86.140625 75.726563 85.847656 74.726563 85.101563 74.210938 84.578125 73.84375 83.890625 73.753906 83.386719 73.355469 81.570313 71.917969 84.105469 68.683594 82.386719 67.773438 80.023438 66.515625 79.957031 70.839844 80.097656 71.882813zM80.097656 71.882813" fill="#fff" />
  <path d="M92.457031 53.492188C91.238281 53.898438 90.539063 55.246094 89.339844 55.707031 87.847656 56.277344 86.210938 55.273438 85.148438 54.085938 84.078125 52.898438 83.222656 51.445313 81.816406 50.691406 79.128906 49.257813 75.851563 50.972656 72.820313 50.714844 71.375 50.597656 70 50.019531 68.554688 49.886719 66.199219 49.664063 63.90625 50.628906 61.726563 51.570313 60.480469 52.109375 59.117188 52.769531 58.617188 54.035156 58.359375 54.699219 58.382813 55.433594 58.410156 56.148438 58.523438 58.902344 58.628906 61.652344 58.738281 64.40625 60.121094 64.058594 60.769531 62.453125 60.894531 61.03125 61.019531 59.609375 60.847656 58.101563 61.472656 56.820313 62.503906 54.71875 65.242188 54.101563 67.574219 54.304688 69.910156 54.507813 72.230469 55.277344 74.550781 54.929688 76.34375 54.660156 77.984375 53.734375 79.773438 53.410156 81.558594 53.085938 83.765625 53.632813 84.402344 55.332031 85.320313 57.769531 82.433594 60.671875 83.808594 62.882813 84.257813 63.613281 85.074219 64.03125 85.632813 64.679688 86.671875 65.890625 86.652344 67.652344 87.210938 69.144531 87.761719 70.640625 89.683594 71.953125 90.855469 70.871094 92.113281 69.71875 90.84375 67.398438 91.800781 65.984375 92.332031 65.210938 93.523438 64.988281 94.289063 65.527344 94.71875 65.828125 95.011719 66.3125 95.488281 66.53125 96.539063 67.015625 97.703125 65.855469 97.820313 64.707031 97.9375 63.558594 97.433594 62.445313 97.246094 61.304688 96.960938 59.546875 99.09375 56.691406 98.582031 55.550781 98.019531 54.296875 93.613281 53.109375 92.457031 53.492188zM52.785156 92.394531C53.199219 93.023438 53.703125 93.609375 53.9375 94.324219 54.167969 95.039063 54.039063 95.949219 53.402344 96.34375 50.425781 98.171875 44.222656 86.796875 44.742188 84.160156 45.332031 81.195313 48.140625 80.835938 49.613281 83.160156 51.355469 85.898438 50.964844 89.605469 52.785156 92.394531zM52.785156 92.394531" fill="#fff" />
  <path d="M123.132813 115.496094C123.421875 115.773438 123.84375 115.992188 123.886719 116.390625 123.90625 116.628906 123.78125 116.851563 123.660156 117.050781 121.902344 119.972656 119.238281 116.222656 119.433594 114.070313 119.515625 113.195313 119.964844 112.535156 120.917969 112.660156 122.414063 112.851563 122.246094 114.644531 123.132813 115.496094zM116.460938 57.5625C116.683594 57.953125 116.800781 58.402344 117.058594 58.773438 117.316406 59.144531 117.800781 59.425781 118.214844 59.25 119.445313 58.738281 118.25 56.527344 117.734375 55.921875 117.105469 55.1875 116.113281 54.65625 115.171875 54.472656 114.589844 54.355469 113.703125 54.238281 113.554688 54.984375 113.320313 56.175781 115.929688 56.617188 116.460938 57.5625zM120.203125 45.65625C120.382813 46.792969 121.011719 47.824219 121.425781 48.910156 121.558594 49.265625 121.671875 49.652344 121.550781 50.011719 121.324219 50.679688 120.402344 50.851563 119.769531 50.5625 119.132813 50.261719 118.703125 49.660156 118.257813 49.128906 117.605469 48.363281 116.847656 47.699219 116.015625 47.144531 114.414063 46.089844 113.3125 44.945313 113.402344 42.867188 113.433594 42.300781 113.5625 41.804688 113.820313 41.421875zM120.203125 45.65625" fill="#d6d6d6" />
  <path d="M54.585938 105.511719C54.796875 105.882813 55.09375 106.230469 55.5 106.367188 55.933594 106.511719 56.425781 106.375 56.78125 106.089844 57.132813 105.800781 57.355469 105.382813 57.476563 104.941406 57.644531 104.339844 57.628906 103.683594 57.429688 103.085938 57.085938 102.046875 55.890625 101.140625 54.84375 101.886719 53.765625 102.65625 54.03125 104.53125 54.585938 105.511719zM45.070313 74.960938C45.609375 75.039063 46.132813 74.78125 46.59375 74.492188 47.78125 73.738281 48.894531 72.597656 48.996094 71.121094 49.082031 69.976563 48.460938 68.527344 47.117188 68.683594 45.105469 68.925781 42.894531 74.648438 45.070313 74.960938zM67.363281 110.796875C67.628906 111.382813 67.679688 112.039063 67.839844 112.660156 67.867188 112.785156 67.917969 112.921875 68.03125 112.972656 68.214844 113.050781 68.398438 112.867188 68.492188 112.691406 68.996094 111.785156 68.957031 110.65625 68.625 109.671875 68.273438 108.625 66.363281 104.808594 64.644531 105.996094 62.734375 107.308594 66.902344 109.753906 67.363281 110.796875zM57.03125 113.035156C56.636719 113.59375 56.257813 114.222656 56.277344 114.910156 56.304688 115.664063 56.804688 116.316406 57.371094 116.816406 57.9375 117.3125 58.59375 117.710938 59.097656 118.269531 59.175781 118.355469 59.273438 118.453125 59.386719 118.429688 59.460938 118.414063 59.515625 118.355469 59.558594 118.296875 59.925781 117.816406 60.144531 117.222656 60.175781 116.621094 60.1875 116.386719 60.164063 116.140625 60.015625 115.964844 59.875 115.804688 59.65625 115.738281 59.460938 115.65625 59.035156 115.476563 58.644531 115.15625 58.472656 114.726563 58.300781 114.296875 58.375 113.75 58.726563 113.441406 58.945313 113.25 59.246094 113.167969 59.476563 112.984375 60.058594 112.523438 60.007813 111.488281 59.277344 111.335938 58.449219 111.167969 57.429688 112.480469 57.03125 113.035156zM57.03125 113.035156" fill="#fff" />
  <g clip-path="url(#svg567105410589tikz_00002b)">
    <path d="M 1409.023438 875 C 1409.023438 581.445313 1171.015625 343.476563 877.460938 343.476563 C 583.90625 343.476563 345.9375 581.445313 345.9375 875 C 345.9375 1168.554688 583.90625 1406.523438 877.460938 1406.523438 C 1171.015625 1406.523438 1409.023438 1168.554688 1409.023438 875 Z M 1409.023438 875" transform="matrix(.1 0 0 -.1 0 175.25)" fill="none" stroke-width="18.721" stroke="#1c1c1c" stroke-miterlimit="10" />
  </g>
</svg>