<svg xmlns="http://www.w3.org/2000/svg" xmlns:xlink="http://www.w3.org/1999/xlink" width="233.667" height="233.667" viewBox="0 0 175.25 175.25" class="displayed_equation">
  <defs>
    <clipPath id="svg567105410589tikz_00001g">
      <path d="M 15.734375 15.738281 L 159.511719 15.738281 L 159.511719 159.515625 L 15.734375 159.515625 Z M 15.734375 15.738281" />
    </clipPath>
    <clipPath id="svg567105410589tikz_00001k">
      <path d="M 15.734375 15.738281 L 159.511719 15.738281 L 159.511719 159.515625 L 15.734375 159.515625 Z M 15.734375 15.738281" />
    </clipPath>
    <clipPath id="svg567105410589tikz_00001e">
      <path d="M0 0H108V109H0z" />
    </clipPath>
    <clipPath id="svg567105410589tikz_00001b">
      <path d="M 0.457031 0.960938 L 107.539063 0.960938 L 107.539063 108.042969 L 0.457031 108.042969 Z M 0.457031 0.960938" />
    </clipPath>
    <clipPath id="svg567105410589tikz_00001a">
      <path d="M0 0H108V109H0z" />
    </clipPath>
    <clipPath id="svg567105410589tikz_00001h">
      <path d="M 34.457031 32.960938 L 141.539063 32.960938 L 141.539063 140.042969 L 34.457031 140.042969 Z M 34.457031 32.960938" />
    </clipPath>
    <clipPath id="svg567105410589tikz_00001f">
      <path d="M 0.457031 1 L 107 1 L 107 108 L 0.457031 108 Z M 0.457031 1" />
    </clipPath>
    <g clip-path="url(#svg567105410589tikz_00001e)">
      <g clip-path="url(#svg567105410589tikz_00001f)" id="svg567105410589tikz_00001i">
        <path d="M 0.59375 54.339844 C 0.59375 24.984375 24.394531 1.1875 53.746094 1.1875 C 75.570313 1.1875 106.910156 18.992188 106.902344 54.339844 C 106.890625 87.707031 77.714844 107.492188 53.746094 107.492188 C 24.394531 107.492188 0.59375 83.695313 0.59375 54.339844 Z M 0.59375 54.339844" />
      </g>
    </g>
    <g clip-path="url(#svg567105410589tikz_00001a)">
      <g clip-path="url(#svg567105410589tikz_00001b)" id="svg567105410589tikz_00001d">
        <path d="M 0.457031 108.042969 L 107.539063 108.042969 L 107.539063 0.960938 L 0.457031 0.960938 Z M 0.457031 108.042969" fill-opacity=".702" />
      </g>
    </g>
    <filter id="svg567105410589tikz_00001c" filterUnits="objectBoundingBox" x="0%" y="0%" width="100%" height="100%">
      <feColorMatrix in="SourceGraphic" values="0 0 0 0 1 0 0 0 0 1 0 0 0 0 1 0 0 0 1 0" />
    </filter>
    <mask id="svg567105410589tikz_00001j">
      <g filter="url(#svg567105410589tikz_00001c)">
        <use xlink:href="#svg567105410589tikz_00001d" />
      </g>
    </mask>
  </defs>
  <g clip-path="url(#svg567105410589tikz_00001g)">
    <path d="M 15.734375 159.515625 L 159.511719 159.515625 L 159.511719 15.738281 L 15.734375 15.738281 Z M 15.734375 159.515625" fill="#1c1c1c" />
  </g>
  <path d="M 34.59375 86.339844 C 34.59375 84.917969 34.648438 83.511719 34.765625 82.117188 C 34.902344 80.28125 35.140625 78.46875 35.46875 76.695313 C 35.828125 74.71875 36.300781 72.785156 36.871094 70.898438 C 38.652344 65.015625 41.429688 59.5625 45.003906 54.742188 C 54.683594 41.664063 70.230469 33.1875 87.746094 33.1875 C 113.851563 33.1875 135.558594 52 140.046875 76.824219 C 140.609375 79.910156 140.902344 83.089844 140.902344 86.339844 C 140.902344 107.445313 128.605469 125.671875 110.789063 134.253906 C 103.816406 137.613281 96 139.496094 87.746094 139.496094 C 78.273438 139.496094 69.378906 137.015625 61.671875 132.664063 C 59.441406 131.414063 57.304688 129.988281 55.292969 128.433594 C 46.34375 121.527344 39.65625 111.824219 36.542969 100.636719 C 35.394531 96.546875 34.738281 92.25 34.617188 87.824219 C 34.601563 87.328125 34.59375 86.835938 34.59375 86.339844 Z M 34.59375 86.339844" fill="#fff" />
  <path d="M49.441406 101.144531C51.066406 101.109375 52.734375 100.339844 53.53125 98.925781 54.160156 97.796875 54.167969 96.433594 54.160156 95.140625 54.152344 93.875 54.140625 92.589844 53.785156 91.375 53.425781 90.160156 52.671875 89.007813 51.53125 88.460938 50.085938 87.761719 48.285156 88.195313 47.019531 89.183594 45.757813 90.171875 44.945313 91.628906 44.3125 93.105469 43.808594 94.277344 43.394531 95.519531 43.421875 96.796875 43.488281 99.925781 46.667969 101.203125 49.441406 101.144531zM36.539063 100.636719C38.292969 100.269531 39.777344 98.859375 40.25 97.132813 40.726563 95.371094 40.113281 93.359375 38.738281 92.160156 38.367188 91.847656 37.957031 91.574219 37.644531 91.207031 37.09375 90.554688 36.933594 89.671875 36.535156 88.921875 36.152344 88.222656 35.347656 87.59375 34.617188 87.824219zM36.539063 100.636719" fill="#d6d6d6" />
  <path d="M 34.765625 82.117188 C 34.902344 80.28125 35.140625 78.46875 35.46875 76.695313 C 36.863281 76.898438 37.269531 78.507813 38.300781 78.675781 C 39.117188 78.816406 39.703125 77.878906 39.828125 77.058594 C 39.957031 76.242188 39.910156 75.308594 40.472656 74.703125 C 41.617188 73.453125 43.664063 74.832031 45.355469 74.667969 C 47.804688 74.4375 48.574219 71.246094 48.515625 68.78125 C 48.453125 66.320313 48.582031 63.21875 50.851563 62.269531 C 51.921875 61.816406 53.570313 62.589844 53.210938 63.6875 C 53.0625 64.167969 52.574219 64.480469 52.421875 64.960938 C 52.0625 66.070313 53.679688 66.828125 54.804688 66.539063 C 55.9375 66.257813 57.015625 65.492188 58.160156 65.710938 C 59.492188 65.972656 60.21875 67.484375 60.28125 68.839844 C 60.339844 70.199219 59.949219 71.550781 60.027344 72.90625 C 60.144531 75.054688 61.625 77.144531 63.703125 77.730469 C 65.777344 78.304688 68.269531 77.125 68.90625 75.066406 C 69.460938 73.289063 68.671875 71.410156 68.320313 69.574219 C 67.96875 67.75 68.382813 65.382813 70.164063 64.820313 C 72.492188 65.253906 74.214844 67.792969 73.757813 70.121094 C 73.511719 71.410156 72.789063 72.996094 73.792969 73.835938 C 74.5625 73.332031 75.363281 72.808594 76.277344 72.71875 C 77.183594 72.632813 78.21875 73.117188 78.425781 74 C 78.722656 75.285156 77.546875 77.257813 78.820313 77.59375 C 79.269531 77.707031 79.71875 77.421875 80.175781 77.332031 C 81.574219 77.058594 82.691406 78.757813 82.492188 80.164063 C 82.289063 81.578125 81.28125 82.71875 80.445313 83.867188 C 79.605469 85.023438 78.871094 86.46875 79.300781 87.828125 C 79.734375 89.195313 81.921875 89.824219 82.578125 88.558594 C 82.832031 88.0625 82.78125 87.464844 83.027344 86.964844 C 83.890625 85.242188 87.640625 85.710938 87.378906 83.800781 C 87.292969 83.144531 86.652344 82.71875 86.316406 82.148438 C 85.582031 80.902344 86.546875 79.121094 87.953125 78.828125 C 89.371094 78.535156 90.847656 79.527344 91.386719 80.859375 C 91.917969 82.195313 91.910156 84.054688 93.257813 84.550781 C 93.722656 84.714844 94.238281 84.65625 94.726563 84.582031 C 95.984375 84.394531 97.300781 84.152344 98.285156 83.34375 C 99.253906 82.539063 99.742188 80.980469 98.980469 79.96875 C 98.40625 79.199219 97.363281 78.988281 96.457031 78.664063 C 95.15625 78.210938 93.976563 77.40625 93.0625 76.375 C 91.984375 75.152344 91.566406 72.804688 93.101563 72.242188 C 93.566406 72.070313 94.082031 72.136719 94.554688 72.261719 C 96.238281 72.703125 97.667969 73.785156 99.15625 74.667969 C 100.65625 75.558594 102.402344 76.277344 104.101563 75.910156 C 105.800781 75.542969 107.222656 73.640625 106.519531 72.046875 C 106.230469 71.378906 105.636719 70.898438 105.097656 70.398438 C 103.21875 68.667969 101.789063 66.453125 100.972656 64.023438 C 100.800781 63.503906 100.652344 62.910156 100.867188 62.394531 C 101.214844 61.585938 102.269531 61.332031 102.78125 60.625 C 103.585938 59.53125 102.761719 57.980469 101.773438 57.0625 C 100.785156 56.140625 99.527344 55.285156 99.300781 53.953125 C 98.980469 52.121094 101.457031 50.53125 102.992188 51.582031 C 103.261719 50.746094 103.523438 49.917969 103.796875 49.085938 C 104.671875 48.148438 106.285156 48.40625 107.308594 49.191406 C 108.324219 49.980469 108.960938 51.144531 109.800781 52.121094 C 110.640625 53.09375 111.867188 53.929688 113.128906 53.675781 C 114.390625 53.421875 115.148438 51.542969 114.097656 50.796875 C 113.246094 50.945313 112.328125 51.078125 111.539063 50.734375 C 110.734375 50.386719 110.183594 49.355469 110.652344 48.621094 C 110.847656 48.324219 111.167969 48.128906 111.492188 47.984375 C 114.609375 46.585938 118.75 49.109375 118.921875 52.519531 C 119.902344 50.988281 122.246094 50.5625 123.699219 51.65625 C 125.242188 52.820313 125.46875 55.039063 126.5 56.679688 C 127.636719 58.484375 129.703125 59.496094 131.066406 61.144531 C 132.917969 63.382813 133.238281 66.472656 134.402344 69.140625 C 135.664063 72.03125 137.910156 74.410156 140.046875 76.824219 C 140.609375 79.910156 140.902344 83.089844 140.902344 86.339844 C 140.902344 107.445313 128.605469 125.671875 110.789063 134.253906 C 110.136719 133.0625 110.304688 131.355469 111.539063 130.828125 C 112.039063 130.617188 112.621094 130.632813 113.074219 130.328125 C 114.078125 129.652344 113.542969 127.917969 112.445313 127.402344 C 111.351563 126.882813 110.070313 127.160156 108.871094 127.367188 C 104.445313 128.140625 99.914063 127.796875 95.4375 127.453125 C 94.007813 127.339844 92.554688 127.21875 91.238281 126.667969 C 89.625 125.992188 88.347656 124.710938 86.796875 123.902344 C 85.253906 123.085938 83.125 122.863281 81.933594 124.144531 C 81.441406 124.679688 81.195313 125.402344 80.738281 125.972656 C 79.390625 127.691406 76.222656 127.339844 75.277344 125.371094 C 75.039063 124.863281 74.851563 124.226563 74.3125 124.066406 C 73.921875 123.957031 73.519531 124.167969 73.105469 124.226563 C 71.242188 124.519531 70.441406 121.648438 71.414063 120.03125 C 72.394531 118.40625 74.222656 117.441406 75.203125 115.824219 C 76.183594 114.207031 75.398438 111.335938 73.527344 111.613281 C 73.082031 112.507813 72.179688 113.5625 71.316406 113.058594 C 70.019531 112.304688 71.582031 109.503906 70.140625 109.0625 C 69.113281 110.320313 66.832031 109.292969 66.480469 107.710938 C 66.117188 106.132813 67.039063 104.550781 68.082031 103.308594 C 68.597656 104.113281 69.152344 104.941406 70.007813 105.378906 C 70.859375 105.800781 72.089844 105.640625 72.507813 104.777344 C 73.324219 103.097656 70.582031 101.992188 69.660156 100.359375 C 68.832031 98.90625 69.589844 97.109375 69.675781 95.4375 C 69.765625 93.769531 68.136719 91.710938 66.769531 92.675781 C 65.871094 93.320313 66.007813 94.757813 65.269531 95.574219 C 64.324219 96.597656 62.464844 96 61.730469 94.808594 C 60.992188 93.628906 61.015625 92.144531 60.949219 90.742188 C 60.871094 89.351563 60.617188 87.824219 59.535156 86.933594 C 58.773438 86.3125 57.746094 86.132813 56.828125 85.792969 C 55 85.121094 53.515625 83.789063 51.9375 82.65625 C 50.359375 81.535156 48.484375 80.5625 46.5625 80.800781 C 44.636719 81.039063 42.847656 82.972656 43.417969 84.828125 C 43.625 85.511719 44.117188 86.109375 44.148438 86.828125 C 44.195313 87.824219 43.183594 88.679688 42.1875 88.632813 C 41.183594 88.585938 40.316406 87.796875 39.996094 86.851563 C 39.144531 84.359375 38.921875 83.339844 36.265625 82.410156 C 35.808594 82.246094 35.28125 82.183594 34.765625 82.117188 Z M 34.765625 82.117188" fill="#d6d6d6" />
  <path d="M36.871094 70.898438C37.445313 72.136719 38.375 72.796875 39.785156 71.800781 40.367188 71.386719 40.570313 70.640625 40.90625 70.015625 41.253906 69.386719 41.976563 68.8125 42.621094 69.117188 43.117188 69.347656 43.371094 70.046875 43.917969 70.082031 44.320313 70.105469 44.636719 69.746094 44.824219 69.386719 45.664063 67.808594 45.308594 65.828125 45.976563 64.175781 46.425781 63.046875 47.308594 62.152344 47.914063 61.105469 48.519531 60.054688 48.808594 58.644531 48.058594 57.6875 47.554688 57.054688 46.710938 56.777344 46.214844 56.132813 45.976563 55.824219 45.832031 55.441406 45.574219 55.152344 45.414063 54.972656 45.222656 54.835938 45.003906 54.742188zM66.804688 63.054688C67.566406 62.734375 68.421875 63.070313 69.234375 63.222656 70.582031 63.476563 72.101563 63.152344 73.015625 62.136719 73.933594 61.113281 74.027344 59.355469 73.023438 58.421875 71.972656 57.449219 67.910156 56.191406 66.515625 56.015625 64.671875 55.785156 63.554688 56.289063 62.695313 57.992188 61.921875 59.539063 61.976563 62.230469 62.847656 63.722656 64.71875 66.921875 64.753906 63.90625 66.804688 63.054688zM66.804688 63.054688" fill="#d6d6d6" />
  <path d="M119.339844 85.34375C118.546875 84.367188 117.46875 83.570313 117.03125 82.390625 116.8125 81.800781 116.78125 81.164063 116.6875 80.542969 116.351563 78.1875 115.191406 75.953125 113.449219 74.328125 113.101563 74 112.703125 73.683594 112.226563 73.621094 111.148438 73.484375 110.355469 74.785156 110.539063 75.855469 110.722656 76.925781 111.523438 77.765625 112.25 78.570313 112.972656 79.375 113.703125 80.320313 113.691406 81.402344 113.683594 81.851563 113.539063 82.3125 113.222656 82.628906 112.480469 83.367188 111.257813 83.066406 110.210938 83.09375 107.984375 83.152344 106.097656 85.023438 105.460938 87.160156 104.820313 89.296875 105.214844 91.613281 105.933594 93.722656 106.03125 94.015625 106.152344 94.324219 106.402344 94.503906 106.972656 94.902344 107.789063 94.347656 107.980469 93.679688 108.171875 93.011719 107.988281 92.300781 107.984375 91.609375 107.980469 90.253906 108.789063 88.867188 110.066406 88.402344 111.34375 87.933594 112.980469 88.59375 113.402344 89.882813 113.648438 90.640625 113.484375 91.457031 113.355469 92.242188 113.230469 93.027344 113.160156 93.878906 113.554688 94.566406 113.949219 95.253906 114.996094 95.601563 115.558594 95.039063 117.4375 93.15625 118.570313 97.125 120.257813 93.929688 121.519531 91.542969 120.972656 87.359375 119.339844 85.34375zM95.398438 102.207031C95.324219 101.660156 95.175781 101.082031 94.757813 100.722656 94.371094 100.394531 93.824219 100.316406 93.398438 100.03125 92.300781 99.285156 92.726563 97.3125 93.972656 96.855469 95.21875 96.40625 96.679688 97.320313 97.097656 98.578125 97.355469 99.347656 97.363281 100.304688 98.027344 100.777344 98.90625 101.402344 100.21875 100.464844 100.3125 99.394531 100.410156 98.316406 99.722656 97.335938 98.984375 96.546875 98.601563 96.136719 98.179688 95.714844 98.082031 95.164063 97.921875 94.273438 98.679688 93.488281 99.433594 92.988281 100.191406 92.488281 101.070313 92.023438 101.394531 91.171875 101.839844 90.019531 100.921875 88.683594 99.742188 88.316406 98.566406 87.949219 97.28125 88.324219 96.191406 88.902344 93.707031 90.21875 91.894531 92.523438 90.46875 94.945313 90.007813 95.730469 89.570313 96.554688 89.460938 97.457031 89.355469 98.359375 89.644531 99.359375 90.390625 99.875 90.917969 100.246094 91.605469 100.332031 92.109375 100.730469 93.925781 102.171875 91.390625 105.40625 93.109375 106.316406 95.472656 107.570313 95.539063 103.25 95.398438 102.207031zM95.398438 102.207031" fill="#fff" />
  <path d="M83.039063 120.59375C84.257813 120.1875 84.957031 118.839844 86.15625 118.378906 87.648438 117.808594 89.28125 118.816406 90.351563 120.003906 91.414063 121.1875 92.273438 122.644531 93.679688 123.394531 96.363281 124.832031 99.640625 123.117188 102.675781 123.371094 104.121094 123.492188 105.492188 124.066406 106.9375 124.203125 109.300781 124.425781 111.589844 123.460938 113.765625 122.515625 115.015625 121.976563 116.378906 121.320313 116.878906 120.054688 117.136719 119.390625 117.113281 118.652344 117.085938 117.941406 116.976563 115.191406 116.863281 112.433594 116.757813 109.679688 115.371094 110.03125 114.726563 111.636719 114.601563 113.058594 114.476563 114.476563 114.648438 115.984375 114.019531 117.265625 112.992188 119.371094 110.253906 119.984375 107.921875 119.785156 105.585938 119.578125 103.261719 118.8125 100.949219 119.160156 99.148438 119.429688 97.507813 120.355469 95.722656 120.679688 93.933594 121.003906 91.726563 120.457031 91.089844 118.753906 90.175781 116.316406 93.058594 113.414063 91.6875 111.203125 91.238281 110.476563 90.421875 110.058594 89.863281 109.410156 88.824219 108.203125 88.839844 106.4375 88.289063 104.941406 87.734375 103.449219 85.8125 102.136719 84.640625 103.214844 83.378906 104.371094 84.65625 106.691406 83.695313 108.105469 83.164063 108.878906 81.976563 109.097656 81.207031 108.558594 80.777344 108.261719 80.480469 107.777344 80.007813 107.554688 78.957031 107.070313 77.789063 108.230469 77.671875 109.378906 77.554688 110.53125 78.0625 111.644531 78.25 112.785156 78.535156 114.542969 76.402344 117.394531 76.914063 118.539063 77.472656 119.789063 81.882813 120.980469 83.039063 120.59375zM122.710938 81.695313C122.296875 81.0625 121.792969 80.480469 121.558594 79.761719 121.324219 79.046875 121.453125 78.136719 122.09375 77.742188 125.070313 75.914063 131.273438 87.292969 130.753906 89.925781 130.164063 92.894531 127.355469 93.25 125.878906 90.925781 124.140625 88.1875 124.53125 84.484375 122.710938 81.695313zM122.710938 81.695313" fill="#fff" />
  <path d="M52.363281 58.589844C52.070313 58.316406 51.652344 58.097656 51.609375 57.699219 51.585938 57.460938 51.714844 57.238281 51.839844 57.035156 53.597656 54.117188 56.257813 57.863281 56.0625 60.019531 55.980469 60.894531 55.53125 61.554688 54.578125 61.429688 53.085938 61.234375 53.25 59.445313 52.363281 58.589844zM59.035156 116.527344C58.8125 116.132813 58.695313 115.683594 58.4375 115.316406 58.175781 114.945313 57.699219 114.664063 57.28125 114.839844 56.050781 115.347656 57.242188 117.5625 57.761719 118.167969 58.386719 118.902344 59.382813 119.429688 60.324219 119.613281 60.90625 119.730469 61.792969 119.851563 61.9375 119.101563 62.175781 117.914063 59.566406 117.472656 59.035156 116.527344zM55.292969 128.433594C55.109375 127.296875 54.480469 126.261719 54.070313 125.175781 53.9375 124.824219 53.824219 124.433594 53.945313 124.074219 54.167969 123.410156 55.089844 123.234375 55.726563 123.527344 56.363281 123.828125 56.789063 124.425781 57.238281 124.957031 57.890625 125.722656 58.648438 126.390625 59.480469 126.941406 61.082031 128 62.179688 129.144531 62.089844 131.21875 62.0625 131.789063 61.933594 132.285156 61.671875 132.664063zM55.292969 128.433594" fill="#d6d6d6" />
  <path d="M120.910156 68.574219C120.699219 68.203125 120.402344 67.855469 119.996094 67.71875 119.5625 67.578125 119.070313 67.714844 118.714844 68 118.363281 68.285156 118.140625 68.707031 118.019531 69.144531 117.851563 69.75 117.867188 70.40625 118.0625 71 118.410156 72.042969 119.605469 72.945313 120.648438 72.203125 121.730469 71.433594 121.464844 69.554688 120.910156 68.574219zM130.425781 99.128906C129.886719 99.046875 129.359375 99.308594 128.902344 99.597656 127.714844 100.347656 126.601563 101.492188 126.496094 102.964844 126.410156 104.113281 127.035156 105.5625 128.378906 105.402344 130.390625 105.160156 132.601563 99.441406 130.425781 99.128906zM108.128906 63.289063C107.867188 62.707031 107.8125 62.050781 107.660156 61.429688 107.628906 61.304688 107.578125 61.167969 107.464844 61.113281 107.28125 61.039063 107.097656 61.222656 107 61.394531 106.5 62.304688 106.539063 63.429688 106.867188 64.417969 107.21875 65.460938 109.128906 69.277344 110.851563 68.09375 112.761719 66.777344 108.59375 64.332031 108.128906 63.289063zM118.460938 61.058594C118.863281 60.496094 119.238281 59.863281 119.21875 59.179688 119.191406 58.421875 118.6875 57.769531 118.125 57.269531 117.558594 56.777344 116.902344 56.378906 116.394531 55.820313 116.320313 55.730469 116.222656 55.632813 116.105469 55.65625 116.035156 55.671875 115.980469 55.730469 115.9375 55.789063 115.566406 56.273438 115.351563 56.863281 115.320313 57.46875 115.308594 57.699219 115.332031 57.949219 115.480469 58.125 115.617188 58.285156 115.839844 58.351563 116.035156 58.433594 116.460938 58.609375 116.851563 58.929688 117.023438 59.363281 117.199219 59.792969 117.117188 60.335938 116.769531 60.644531 116.546875 60.835938 116.25 60.921875 116.019531 61.101563 115.441406 61.5625 115.488281 62.601563 116.21875 62.75 117.046875 62.921875 118.066406 61.609375 118.460938 61.058594zM118.460938 61.058594" fill="#fff" />
  <g clip-path="url(#svg567105410589tikz_00001h)">
    <use xlink:href="#svg567105410589tikz_00001i" transform="translate(34 32)" mask="url(#svg567105410589tikz_00001j)" />
  </g>
  <g clip-path="url(#svg567105410589tikz_00001k)">
    <path d="M 1409.023438 889.101563 C 1409.023438 595.546875 1171.054688 357.578125 877.460938 357.578125 C 583.945313 357.578125 345.9375 595.546875 345.9375 889.101563 C 345.9375 1182.695313 583.945313 1420.625 877.460938 1420.625 C 1171.054688 1420.625 1409.023438 1182.695313 1409.023438 889.101563 Z M 1409.023438 889.101563" transform="matrix(.1 0 0 -.1 0 175.25)" fill="none" stroke-width="18.721" stroke="#1c1c1c" stroke-miterlimit="10" />
  </g>
</svg>