<svg xmlns="http://www.w3.org/2000/svg" xmlns:xlink="http://www.w3.org/1999/xlink" width="297.573" height="297.573" viewBox="0 0 223.18 223.18" class="displayed_equation">
  <defs>
    <clipPath id="svg298121742754tikz_00001g">
      <path d="M 15.734375 15.738281 L 207.441406 15.738281 L 207.441406 207.445313 L 15.734375 207.445313 Z M 15.734375 15.738281" />
    </clipPath>
    <clipPath id="svg298121742754tikz_00001h">
      <path d="M 68.65625 40.699219 L 181.480469 40.699219 L 181.480469 183.480469 L 68.65625 183.480469 Z M 68.65625 40.699219" />
    </clipPath>
    <filter id="svg298121742754tikz_00001c" filterUnits="objectBoundingBox" x="0%" y="0%" width="100%" height="100%">
      <feColorMatrix in="SourceGraphic" values="0 0 0 0 1 0 0 0 0 1 0 0 0 0 1 0 0 0 1 0" />
    </filter>
    <clipPath id="svg298121742754tikz_00001b">
      <path d="M 0.65625 0.699219 L 113.480469 0.699219 L 113.480469 143.480469 L 0.65625 143.480469 Z M 0.65625 0.699219" />
    </clipPath>
    <clipPath id="svg298121742754tikz_00001a">
      <path d="M0 0H114V144H0z" />
    </clipPath>
    <g clip-path="url(#svg298121742754tikz_00001a)">
      <g clip-path="url(#svg298121742754tikz_00001b)" id="svg298121742754tikz_00001d">
        <path d="M 0.65625 143.480469 L 113.480469 143.480469 L 113.480469 0.699219 L 0.65625 0.699219 Z M 0.65625 143.480469" fill-opacity=".702" />
      </g>
    </g>
    <mask id="svg298121742754tikz_00001j">
      <g filter="url(#svg298121742754tikz_00001c)">
        <use xlink:href="#svg298121742754tikz_00001d" />
      </g>
    </mask>
    <clipPath id="svg298121742754tikz_00001f">
      <path d="M 1 0.699219 L 113 0.699219 L 113 143 L 1 143 Z M 1 0.699219" />
    </clipPath>
    <clipPath id="svg298121742754tikz_00001e">
      <path d="M0 0H114V144H0z" />
    </clipPath>
    <g clip-path="url(#svg298121742754tikz_00001e)">
      <g clip-path="url(#svg298121742754tikz_00001f)" id="svg298121742754tikz_00001i">
        <path d="M 112.777344 71.738281 C 112.769531 110.875 81.042969 142.609375 41.90625 142.609375 C 26.96875 142.609375 1.234375 110.902344 1.242188 71.769531 C 1.25 32.636719 26.011719 0.898438 41.9375 0.898438 C 81.070313 0.898438 112.785156 32.609375 112.777344 71.738281 Z M 112.777344 71.738281" />
      </g>
    </g>
    <clipPath id="svg298121742754tikz_00001k">
      <path d="M 15.734375 15.738281 L 207.441406 15.738281 L 207.441406 207.445313 L 15.734375 207.445313 Z M 15.734375 15.738281" />
    </clipPath>
  </defs>
  <g clip-path="url(#svg298121742754tikz_00001g)">
    <path d="M 15.734375 207.445313 L 207.441406 207.445313 L 207.441406 15.738281 L 15.734375 15.738281 Z M 15.734375 207.445313" fill="#1c1c1c" />
  </g>
  <path d="M 59.828125 61.644531 C 61.164063 60.304688 62.542969 59.023438 63.96875 57.824219 C 65.828125 56.21875 67.757813 54.738281 69.742188 53.375 C 71.941406 51.851563 74.210938 50.476563 76.527344 49.230469 C 83.753906 45.363281 91.507813 42.84375 99.417969 41.664063 C 120.863281 38.46875 143.503906 45.128906 160.007813 61.644531 C 184.613281 86.257813 187.34375 124.457031 168.175781 152.089844 C 165.796875 155.527344 163.074219 158.804688 160.007813 161.871094 C 140.121094 181.765625 111.359375 187.359375 86.480469 178.652344 C 76.742188 175.246094 67.605469 169.648438 59.828125 161.871094 C 50.902344 152.9375 44.851563 142.210938 41.6875 130.847656 C 40.761719 127.5625 40.09375 124.210938 39.664063 120.84375 C 37.738281 105.898438 40.582031 90.441406 48.191406 76.957031 C 50.960938 72.023438 54.390625 67.347656 58.453125 63.0625 C 58.902344 62.582031 59.359375 62.109375 59.828125 61.644531 Z M 59.828125 61.644531" fill="#fff" />
  <path d="M59.871094 89.597656C61.429688 91.097656 63.730469 91.945313 65.8125 91.359375 67.472656 90.890625 68.761719 89.613281 69.972656 88.386719 71.160156 87.183594 72.359375 85.964844 73.167969 84.480469 73.972656 83.003906 74.351563 81.199219 73.792969 79.609375 73.085938 77.589844 70.980469 76.300781 68.855469 76.042969 66.734375 75.785156 64.597656 76.382813 62.613281 77.179688 61.03125 77.8125 59.46875 78.597656 58.296875 79.824219 55.410156 82.839844 57.199219 87.035156 59.871094 89.597656zM48.191406 76.957031C50.1875 78.265625 52.910156 78.335938 54.984375 77.148438 57.09375 75.941406 58.414063 73.464844 58.246094 71.035156 58.199219 70.390625 58.0625 69.75 58.113281 69.105469 58.210938 67.976563 58.886719 66.988281 59.21875 65.90625 59.523438 64.882813 59.359375 63.535156 58.453125 63.0625zM48.191406 76.957031" fill="#d6d6d6" />
  <path d="M 63.96875 57.824219 C 65.828125 56.21875 67.757813 54.738281 69.742188 53.375 C 70.867188 54.878906 69.726563 56.777344 70.546875 57.910156 C 71.179688 58.8125 72.613281 58.484375 73.511719 57.824219 C 74.398438 57.175781 75.234375 56.253906 76.332031 56.210938 C 78.59375 56.113281 79.21875 59.339844 80.972656 60.78125 C 83.496094 62.875 87.230469 60.59375 89.492188 58.214844 C 91.761719 55.835938 94.800781 53.03125 97.835938 54.273438 C 99.265625 54.859375 100.09375 57.140625 98.71875 57.839844 C 98.125 58.148438 97.371094 57.988281 96.777344 58.300781 C 95.394531 59.003906 96.207031 61.238281 97.53125 62.03125 C 98.867188 62.832031 100.601563 63.128906 101.480469 64.410156 C 102.488281 65.914063 101.746094 68.027344 100.527344 69.359375 C 99.304688 70.695313 97.660156 71.605469 96.457031 72.953125 C 94.539063 75.09375 93.96875 78.460938 95.375 80.96875 C 96.785156 83.46875 100.25 84.703125 102.789063 83.363281 C 104.984375 82.210938 106.015625 79.695313 107.414063 77.636719 C 108.804688 75.582031 111.421875 73.734375 113.632813 74.886719 C 115.414063 77.492188 114.644531 81.507813 112.019531 83.277344 C 110.574219 84.257813 108.402344 85.078125 108.558594 86.8125 C 109.746094 87.058594 111 87.320313 111.941406 88.097656 C 112.882813 88.867188 113.40625 90.308594 112.761719 91.328125 C 111.828125 92.828125 108.863281 93.574219 109.746094 95.09375 C 110.066406 95.625 110.757813 95.78125 111.273438 96.125 C 112.855469 97.183594 112.300781 99.839844 110.785156 100.976563 C 109.265625 102.117188 107.242188 102.246094 105.367188 102.542969 C 103.488281 102.839844 101.4375 103.511719 100.554688 105.199219 C 99.675781 106.890625 101.148438 109.546875 102.960938 108.976563 C 103.664063 108.746094 104.183594 108.136719 104.886719 107.894531 C 107.320313 107.082031 110.414063 111.066406 111.964844 109.019531 C 112.5 108.3125 112.304688 107.308594 112.523438 106.453125 C 113.003906 104.589844 115.59375 103.824219 117.191406 104.871094 C 118.804688 105.933594 119.265625 108.253906 118.515625 110.019531 C 117.757813 111.777344 115.996094 113.53125 116.800781 115.265625 C 117.078125 115.859375 117.625 116.285156 118.15625 116.679688 C 119.515625 117.6875 120.984375 118.703125 122.671875 118.867188 C 124.351563 119.019531 126.277344 118.011719 126.511719 116.339844 C 126.695313 115.066406 125.910156 113.890625 125.359375 112.730469 C 124.558594 111.074219 124.210938 109.210938 124.324219 107.371094 C 124.453125 105.203125 126.277344 102.59375 128.253906 103.511719 C 128.855469 103.789063 129.277344 104.335938 129.597656 104.902344 C 130.773438 106.90625 131.105469 109.269531 131.675781 111.511719 C 132.246094 113.761719 133.214844 116.085938 135.160156 117.339844 C 137.113281 118.597656 140.242188 118.144531 141.082031 115.980469 C 141.4375 115.074219 141.332031 114.066406 141.296875 113.085938 C 141.152344 109.679688 141.894531 106.242188 143.414063 103.1875 C 143.746094 102.527344 144.160156 101.828125 144.851563 101.546875 C 145.9375 101.109375 147.175781 101.863281 148.324219 101.6875 C 150.109375 101.410156 150.792969 99.171875 150.730469 97.375 C 150.667969 95.574219 150.285156 93.585938 151.332031 92.113281 C 152.753906 90.082031 156.589844 90.921875 157.046875 93.359375 C 158.082031 92.828125 159.113281 92.289063 160.148438 91.765625 C 161.859375 91.703125 163.144531 93.472656 163.363281 95.171875 C 163.582031 96.871094 163.078125 98.578125 162.953125 100.285156 C 162.824219 101.992188 163.191406 103.941406 164.621094 104.886719 C 166.050781 105.839844 168.535156 104.78125 168.253906 103.085938 C 167.308594 102.421875 166.320313 101.6875 165.894531 100.617188 C 165.464844 99.535156 165.917969 98.039063 167.054688 97.792969 C 167.523438 97.691406 168.003906 97.8125 168.445313 97.984375 C 172.699219 99.597656 174.226563 105.882813 171.175781 109.253906 C 173.539063 108.742188 176.152344 110.550781 176.488281 112.949219 C 176.84375 115.503906 174.96875 117.808594 174.394531 120.328125 C 173.765625 123.101563 174.761719 126.003906 174.492188 128.84375 C 174.125 132.695313 171.515625 135.917969 170.097656 139.527344 C 168.5625 143.441406 168.4375 147.804688 168.175781 152.089844 C 165.796875 155.527344 163.074219 158.804688 160.007813 161.871094 C 140.121094 181.765625 111.359375 187.359375 86.480469 178.652344 C 86.988281 176.917969 88.757813 175.460938 90.414063 176.132813 C 91.085938 176.40625 91.617188 176.972656 92.332031 177.105469 C 93.914063 177.417969 95.050781 175.277344 94.496094 173.753906 C 93.957031 172.230469 92.488281 171.289063 91.164063 170.355469 C 86.265625 166.910156 82.316406 162.316406 78.425781 157.765625 C 77.179688 156.3125 75.925781 154.828125 75.203125 153.066406 C 74.320313 150.914063 74.320313 148.496094 73.625 146.273438 C 72.941406 144.050781 71.148438 141.835938 68.816406 141.914063 C 67.84375 141.957031 66.933594 142.402344 65.96875 142.507813 C 63.074219 142.863281 60.421875 139.542969 61.390625 136.800781 C 61.640625 136.09375 62.0625 135.316406 61.703125 134.65625 C 61.441406 134.1875 60.863281 134.003906 60.421875 133.671875 C 58.390625 132.1875 60.335938 128.730469 62.777344 128.121094 C 65.234375 127.515625 67.867188 128.328125 70.3125 127.726563 C 72.761719 127.125 74.722656 123.683594 72.699219 122.179688 C 71.441406 122.601563 69.59375 122.742188 69.253906 121.457031 C 68.75 119.519531 72.855469 118.351563 71.914063 116.578125 C 69.761719 116.800781 68.578125 113.679688 69.734375 111.855469 C 70.886719 110.027344 73.242188 109.402344 75.394531 109.214844 C 75.125 110.457031 74.867188 111.765625 75.261719 112.976563 C 75.664063 114.1875 76.976563 115.1875 78.183594 114.769531 C 80.535156 113.960938 78.992188 110.332031 79.664063 107.921875 C 80.25 105.769531 82.65625 104.789063 84.3125 103.300781 C 85.976563 101.808594 86.378906 98.328125 84.179688 97.953125 C 82.726563 97.714844 81.496094 99.195313 80.03125 99.265625 C 78.175781 99.34375 76.988281 97.027344 77.421875 95.214844 C 77.835938 93.402344 79.253906 92.023438 80.511719 90.640625 C 81.753906 89.253906 82.953125 87.574219 82.777344 85.71875 C 82.644531 84.410156 81.84375 83.277344 81.292969 82.089844 C 80.207031 79.730469 80.066406 77.078125 79.644531 74.519531 C 79.210938 71.972656 78.367188 69.289063 76.328125 67.703125 C 74.285156 66.109375 70.78125 66.246094 69.566406 68.53125 C 69.121094 69.375 69.019531 70.40625 68.375 71.109375 C 67.476563 72.09375 65.722656 71.945313 64.824219 70.964844 C 63.917969 69.972656 63.847656 68.410156 64.433594 67.214844 C 65.984375 64.0625 66.734375 62.894531 65.105469 59.511719 C 64.828125 58.925781 64.390625 58.371094 63.96875 57.824219 Z M 63.96875 57.824219" fill="#d6d6d6" />
  <path d="M76.527344 49.230469C75.902344 50.9375 76.160156 52.4375 78.421875 52.828125 79.359375 52.988281 80.257813 52.472656 81.15625 52.203125 82.078125 51.9375 83.308594 52.078125 83.625 52.976563 83.867188 53.65625 83.457031 54.554688 83.9375 55.105469 84.292969 55.511719 84.929688 55.46875 85.445313 55.304688 87.722656 54.605469 89.253906 52.410156 91.445313 51.476563 92.933594 50.835938 94.601563 50.824219 96.164063 50.414063 97.722656 49.996094 99.328125 48.925781 99.515625 47.324219 99.640625 46.25 99.105469 45.195313 99.246094 44.121094 99.308594 43.601563 99.535156 43.113281 99.5625 42.589844 99.585938 42.269531 99.527344 41.960938 99.414063 41.664063zM112.128906 70.058594C113.148438 70.476563 113.640625 71.597656 114.261719 72.507813 115.289063 74.019531 117.023438 75.144531 118.851563 75.046875 120.675781 74.949219 122.421875 73.378906 122.351563 71.550781 122.28125 69.644531 119.640625 64.628906 118.488281 63.144531 116.972656 61.191406 115.4375 60.617188 113.023438 61.414063 110.839844 62.136719 108.355469 64.726563 107.769531 66.960938 106.519531 71.738281 109.390625 68.925781 112.128906 70.058594zM112.128906 70.058594" fill="#d6d6d6" />
  <path d="M140.632813 140.605469C140.804688 138.9375 140.535156 137.164063 141.242188 135.640625 141.589844 134.878906 142.15625 134.246094 142.65625 133.578125 144.5625 131.039063 145.570313 127.839844 145.464844 124.664063 145.445313 124.027344 145.363281 123.351563 144.976563 122.84375 144.089844 121.699219 142.109375 122.179688 141.277344 123.359375 140.445313 124.539063 140.40625 126.085938 140.332031 127.53125 140.257813 128.976563 140.054688 130.550781 139.023438 131.5625 138.59375 131.976563 138.023438 132.273438 137.421875 132.273438 136.03125 132.273438 135.160156 130.835938 134.152344 129.875 131.996094 127.828125 128.453125 127.816406 125.839844 129.226563 123.226563 130.640625 121.417969 133.199219 120.101563 135.863281 119.921875 136.234375 119.742188 136.636719 119.808594 137.039063 119.964844 137.953125 121.261719 138.199219 122.070313 137.753906 122.878906 137.304688 123.375 136.464844 124.03125 135.804688 125.300781 134.519531 127.371094 133.980469 129.015625 134.742188 130.65625 135.503906 131.578125 137.667969 130.757813 139.28125 130.277344 140.226563 129.351563 140.84375 128.492188 141.464844 127.636719 142.082031 126.765625 142.820313 126.488281 143.84375 126.214844 144.863281 126.871094 146.179688 127.929688 146.179688 131.476563 146.175781 128.808594 150.980469 133.40625 149.558594 136.847656 148.5 140.269531 144.042969 140.632813 140.605469zM102.175781 133.929688C102.621094 133.34375 103.027344 132.65625 102.96875 131.925781 102.917969 131.25 102.472656 130.660156 102.34375 129.992188 102.011719 128.257813 104.273438 126.796875 105.875 127.542969 107.476563 128.292969 107.992188 130.527344 107.203125 132.109375 106.71875 133.082031 105.820313 133.988281 106 135.058594 106.242188 136.480469 108.359375 136.832031 109.464844 135.910156 110.566406 134.984375 110.84375 133.410156 110.890625 131.96875 110.917969 131.230469 110.917969 130.429688 111.34375 129.820313 112.03125 128.832031 113.484375 128.804688 114.671875 129.042969 115.855469 129.285156 117.121094 129.671875 118.226563 129.179688 119.726563 128.511719 120.125 126.390625 119.359375 124.929688 118.601563 123.472656 117.03125 122.613281 115.460938 122.128906 111.882813 121.035156 108 121.496094 104.371094 122.433594 103.199219 122.738281 102.007813 123.105469 101.0625 123.855469 100.109375 124.601563 99.4375 125.820313 99.652344 127.011719 99.804688 127.851563 100.367188 128.585938 100.46875 129.433594 100.824219 132.503906 95.386719 133.164063 96.148438 135.644531 97.191406 139.054688 101.332031 135.042969 102.175781 133.929688zM102.175781 133.929688" fill="#fff" />
  <path d="M73.199219 139.609375C74.730469 140.378906 76.660156 139.765625 78.226563 140.464844 80.167969 141.332031 80.761719 143.824219 80.648438 145.945313 80.535156 148.070313 79.972656 150.25 80.589844 152.285156 81.765625 156.171875 86.472656 157.640625 89.089844 160.742188 90.335938 162.21875 91.09375 164.058594 92.324219 165.546875 94.34375 167.980469 97.40625 169.234375 100.347656 170.394531 102.03125 171.0625 103.941406 171.730469 105.601563 171.003906 106.472656 170.625 107.140625 169.90625 107.785156 169.210938 110.277344 166.511719 112.769531 163.8125 115.261719 161.113281 113.628906 160.136719 111.507813 161.042969 110.046875 162.261719 108.59375 163.488281 107.332031 165.066406 105.535156 165.683594 102.582031 166.699219 99.417969 164.695313 97.410156 162.304688 95.40625 159.914063 93.941406 157 91.429688 155.144531 89.480469 153.707031 87.0625 153.027344 85.074219 151.648438 83.082031 150.269531 81.523438 147.671875 82.519531 145.46875 83.953125 142.308594 89.410156 142.292969 90.203125 138.914063 90.460938 137.800781 90.085938 136.640625 90.171875 135.496094 90.335938 133.382813 92.011719 131.734375 92.898438 129.800781 93.785156 127.875 93.210938 124.824219 91.089844 124.734375 88.8125 124.640625 87.828125 128.027344 85.589844 128.453125 84.359375 128.6875 83.03125 127.769531 82.8125 126.542969 82.691406 125.851563 82.871094 125.117188 82.632813 124.457031 82.101563 123.011719 79.90625 123.007813 78.714844 123.984375 77.519531 124.957031 76.945313 126.484375 76.046875 127.730469 74.660156 129.660156 69.960938 130.335938 69.363281 131.894531 68.714844 133.609375 71.746094 138.886719 73.199219 139.609375zM147.242188 140.339844C147.449219 139.359375 147.527344 138.328125 147.980469 137.433594 148.4375 136.539063 149.417969 135.800781 150.394531 136.035156 154.917969 137.113281 150.046875 153.691406 147.066406 155.683594 143.722656 157.925781 140.734375 155.613281 141.535156 152.03125 142.480469 147.808594 146.335938 144.6875 147.242188 140.339844zM147.242188 140.339844" fill="#fff" />
  <path d="M102.722656 52.230469C102.710938 51.699219 102.519531 51.09375 102.859375 50.683594 103.058594 50.4375 103.386719 50.347656 103.695313 50.269531 108.101563 49.175781 107.082031 55.222656 104.863281 57.066406 103.96875 57.8125 102.921875 58.015625 102.132813 56.996094 100.910156 55.40625 102.753906 53.871094 102.722656 52.230469zM54.410156 113.148438C54.570313 112.566406 54.886719 112.03125 54.992188 111.441406 55.09375 110.847656 54.90625 110.128906 54.347656 109.898438 52.710938 109.222656 51.75 112.429688 51.664063 113.492188 51.566406 114.773438 52 116.210938 52.714844 117.273438 53.15625 117.929688 53.875 118.882813 54.722656 118.316406 56.066406 117.414063 54.019531 114.539063 54.410156 113.148438zM39.664063 120.84375C40.570313 119.601563 40.949219 118.035156 41.582031 116.621094 41.789063 116.164063 42.050781 115.691406 42.5 115.464844 43.339844 115.046875 44.371094 115.753906 44.695313 116.628906 45.015625 117.511719 44.851563 118.480469 44.773438 119.402344 44.667969 120.738281 44.753906 122.078125 45.015625 123.386719 45.53125 125.890625 45.488281 128.007813 43.449219 129.878906 42.882813 130.386719 42.296875 130.734375 41.6875 130.847656zM39.664063 120.84375" fill="#d6d6d6" />
  <path d="M157.914063 126.277344C158.066406 125.726563 158.113281 125.113281 157.855469 124.601563 157.582031 124.066406 156.996094 123.726563 156.390625 123.664063 155.789063 123.601563 155.179688 123.789063 154.65625 124.085938 153.925781 124.496094 153.324219 125.128906 152.949219 125.875 152.289063 127.183594 152.566406 129.167969 154.253906 129.445313 155.996094 129.738281 157.515625 127.722656 157.914063 126.277344zM138.089844 164.050781C137.65625 163.46875 136.914063 163.214844 136.210938 163.058594 134.386719 162.644531 132.261719 162.671875 130.769531 163.964844 129.609375 164.964844 128.832031 166.921875 130.246094 168.035156 132.367188 169.707031 139.847656 166.398438 138.089844 164.050781zM150.847656 109.242188C151.15625 108.445313 151.722656 107.773438 152.164063 107.039063 152.246094 106.894531 152.335938 106.71875 152.269531 106.558594 152.171875 106.316406 151.828125 106.320313 151.574219 106.394531 150.242188 106.773438 149.21875 107.875 148.601563 109.117188 147.945313 110.429688 146.152344 115.832031 148.886719 116.335938 151.929688 116.894531 150.304688 110.660156 150.847656 109.242188zM162.691406 116.878906C163.597656 116.726563 164.550781 116.480469 165.175781 115.816406 165.863281 115.082031 166.007813 113.988281 165.941406 112.988281 165.875 111.988281 165.632813 110.996094 165.683594 109.992188 165.691406 109.835938 165.691406 109.648438 165.5625 109.5625 165.480469 109.507813 165.371094 109.515625 165.273438 109.53125 164.476563 109.636719 163.710938 109.992188 163.113281 110.535156 162.886719 110.738281 162.671875 110.996094 162.648438 111.300781 162.628906 111.585938 162.769531 111.851563 162.878906 112.109375 163.113281 112.683594 163.175781 113.351563 162.933594 113.921875 162.691406 114.492188 162.105469 114.929688 161.488281 114.890625 161.097656 114.863281 160.738281 114.664063 160.347656 114.617188 159.367188 114.503906 158.4375 115.527344 158.984375 116.355469 159.605469 117.296875 161.804688 117.023438 162.691406 116.878906zM162.691406 116.878906" fill="#fff" />
  <g clip-path="url(#svg298121742754tikz_00001h)">
    <use xlink:href="#svg298121742754tikz_00001i" transform="translate(68 40)" mask="url(#svg298121742754tikz_00001j)" />
  </g>
  <g clip-path="url(#svg298121742754tikz_00001k)">
    <path d="M 1807.617188 1114.260938 C 1807.617188 1505.667188 1490.46875 1822.932813 1099.21875 1822.932813 C 708.007813 1822.932813 390.820313 1505.667188 390.820313 1114.260938 C 390.820313 722.854688 708.007813 405.510938 1099.21875 405.510938 C 1490.46875 405.510938 1807.617188 722.854688 1807.617188 1114.260938 Z M 1807.617188 1114.260938" transform="matrix(.1 0 0 -.1 0 223.18)" fill="none" stroke-width="24.962" stroke="#1c1c1c" stroke-miterlimit="10" />
  </g>
</svg>